<svg width="1600" height="900" viewBox="0 0 1600 900" fill="none" xmlns="http://www.w3.org/2000/svg">
  <defs>
    <linearGradient id="bg" x1="0" y1="0" x2="1600" y2="900" gradientUnits="userSpaceOnUse">
      <stop stop-color="#091A2B"/>
      <stop offset="1" stop-color="#12314D"/>
    </linearGradient>
  </defs>
  <rect width="1600" height="900" fill="url(#bg)"/>
  <rect x="170" y="160" width="1260" height="580" rx="28" fill="#102C45" stroke="#4EB3E8" stroke-opacity="0.35"/>
  <rect x="250" y="240" width="760" height="420" rx="18" fill="#0E2438" stroke="#8EDBFF" stroke-opacity="0.5"/>
  <rect x="305" y="290" width="240" height="24" rx="8" fill="#4EB3E8" fill-opacity="0.55"/>
  <rect x="305" y="338" width="470" height="14" rx="6" fill="#E7F7FF" fill-opacity="0.65"/>
  <rect x="305" y="368" width="410" height="14" rx="6" fill="#E7F7FF" fill-opacity="0.45"/>
  <rect x="305" y="420" width="130" height="130" rx="14" fill="#4EB3E8" fill-opacity="0.2"/>
  <path d="M360 455L340 485L360 515" stroke="#8EDBFF" stroke-width="8" stroke-linecap="round" stroke-linejoin="round"/>
  <path d="M380 515L400 485L380 455" stroke="#8EDBFF" stroke-width="8" stroke-linecap="round" stroke-linejoin="round"/>
  <path d="M470 520L520 450" stroke="#4EB3E8" stroke-width="8" stroke-linecap="round"/>
  <rect x="1035" y="260" width="310" height="190" rx="16" fill="#0F263B" stroke="#8EDBFF" stroke-opacity="0.45"/>
  <rect x="1065" y="300" width="180" height="20" rx="8" fill="#4EB3E8" fill-opacity="0.6"/>
  <rect x="1065" y="338" width="230" height="12" rx="6" fill="#E7F7FF" fill-opacity="0.6"/>
  <rect x="1065" y="364" width="190" height="12" rx="6" fill="#E7F7FF" fill-opacity="0.42"/>
  <circle cx="1190" cy="560" r="95" fill="#4EB3E8" fill-opacity="0.16" stroke="#8EDBFF" stroke-width="6"/>
  <circle cx="1190" cy="540" r="28" fill="#4EB3E8"/>
  <path d="M1136 622C1149 588 1170 572 1190 572C1210 572 1231 588 1244 622" stroke="#8EDBFF" stroke-width="8" stroke-linecap="round"/>
</svg>
